<svg xmlns="http://www.w3.org/2000/svg" width="920" height="520" viewBox="0 0 920 520" role="img" aria-label="Linux vector search query P99">
      <rect width="100%" height="100%" fill="#ffffff"/>
      <text x="112" y="32" font-size="25" font-weight="800" fill="#0f172a">Linux vector search query P99</text>
      <text x="112" y="55" font-size="15" fill="#64748b">Query-phase P99 latency for 100 top-10 searches.</text>
      
      <line x1="112" y1="408" x2="872" y2="408" stroke="#d8dee9" stroke-width="1"/>
      <text x="98" y="413" text-anchor="end" font-size="13" fill="#64748b">0.10</text>
      <line x1="112" y1="342.8" x2="872" y2="342.8" stroke="#d8dee9" stroke-width="1"/>
      <text x="98" y="347.8" text-anchor="end" font-size="13" fill="#64748b">1.00</text>
      <line x1="112" y1="277.6" x2="872" y2="277.6" stroke="#d8dee9" stroke-width="1"/>
      <text x="98" y="282.6" text-anchor="end" font-size="13" fill="#64748b">10.0</text>
      <line x1="112" y1="212.4" x2="872" y2="212.4" stroke="#d8dee9" stroke-width="1"/>
      <text x="98" y="217.4" text-anchor="end" font-size="13" fill="#64748b">100</text>
      <line x1="112" y1="147.2" x2="872" y2="147.2" stroke="#d8dee9" stroke-width="1"/>
      <text x="98" y="152.2" text-anchor="end" font-size="13" fill="#64748b">1.0k</text>
      <line x1="112" y1="82" x2="872" y2="82" stroke="#d8dee9" stroke-width="1"/>
      <text x="98" y="87" text-anchor="end" font-size="13" fill="#64748b">10.0k</text>
      <line x1="112" y1="408" x2="872" y2="408" stroke="#334155" stroke-width="1.2"/>
      <line x1="112" y1="82" x2="112" y2="408" stroke="#334155" stroke-width="1.2"/>
      <text x="112" y="496" font-size="14" fill="#64748b">Linux CI sqlite-vec rerun, July 4 2026</text>
      <text x="28" y="64" font-size="14" font-weight="700" fill="#334155">ms (log scale)</text>
      
      <rect x="155" y="316.21492667733196" width="104" height="91.78507332266804" rx="4" fill="#2563eb"/>
      <text x="207" y="306.21492667733196" text-anchor="middle" font-size="13" font-weight="700" fill="#0f172a">2.56</text>
      <text x="207" y="450" text-anchor="middle" font-size="14" fill="#0f172a">DataVo</text>
      <rect x="345" y="275.9622841878962" width="104" height="132.03771581210378" rx="4" fill="#059669"/>
      <text x="397" y="265.9622841878962" text-anchor="middle" font-size="13" font-weight="700" fill="#0f172a">10.6</text>
      <text x="397" y="450" text-anchor="middle" font-size="14" fill="#0f172a">DataVo-Flat</text>
      <rect x="535" y="132.79074183933147" width="104" height="275.2092581606685" rx="4" fill="#7c3aed"/>
      <text x="587" y="122.79074183933147" text-anchor="middle" font-size="13" font-weight="700" fill="#0f172a">1.7k</text>
      <text x="587" y="450" text-anchor="middle" font-size="14" fill="#0f172a">LiteDB</text>
      <rect x="725" y="258.56043308546464" width="104" height="149.43956691453536" rx="4" fill="#d97706"/>
      <text x="777" y="248.56043308546464" text-anchor="middle" font-size="13" font-weight="700" fill="#0f172a">19.6</text>
      <text x="777" y="450" text-anchor="middle" font-size="14" fill="#0f172a">SQLite/sqlite-vec</text>
    </svg>
